<?xml version="1.0" encoding="utf-8"?>
<svg xmlns="http://www.w3.org/2000/svg" viewBox="15 6 70 88.01" width="70px" height="88.01px">
  <path d="M15.42,87.95c.03,.11,.07,.21,.1,.29,0,.03,.03,.06,.04,.09,.15,.39,.32,.77,.52,1.14,.13,.22,.26,.43,.41,.65,0,.03,.03,.06,.06,.09,.32,.45,.67,.87,1.08,1.27,.03,.02,.06,.05,.09,.07,.17,.17,.36,.33,.55,.49,.02,.02,.06,.05,.09,.07,.19,.15,.39,.28,.59,.42,.03,.03,.07,.05,.12,.07l.22,.14c.12,.08,.23,.15,.35,.21,.02,0,.04,.02,.07,.03,.24,.13,.51,.25,.77,.36,1.1,.45,2.27,.67,3.47,.67h57.69c.44,0,.86-.12,1.22-.34,.37-.23,.53-.67,.42-1.1-.03-.1-.07-.18-.12-.25-1-2.01-1.56-4.53-1.56-7.11s.51-4.86,1.42-6.82c1.19-.5,1.98-1.65,1.98-2.94V9.2c0-1.76-1.47-3.2-3.28-3.2H28.81c-7.61,0-13.81,5.98-13.81,13.34V85.34c0,.88,.14,1.75,.41,2.6,0,0,0,0,0,0ZM23.51,9.17c1.59-.77,3.39-1.21,5.3-1.21h52.92c.74,0,1.33,.56,1.33,1.24V75.43c0,.56-.4,1.06-.96,1.2h0c-.13,.03-.24,.05-.36,.05H23.94c-.15,0-.29,.02-.44,.03V9.17Zm-6.56,10.17c0-3.66,1.82-6.9,4.62-8.99V77.01c-1.85,.5-3.46,1.54-4.62,2.95V19.34Zm7,59.3h56.86c-.76,1.98-1.15,4.22-1.15,6.56s.44,4.79,1.25,6.84H23.94c-.95,0-1.87-.18-2.74-.54-.21-.09-.42-.19-.63-.29-.08-.04-.16-.08-.23-.14l-.32-.2s-.03,0-.05-.02c-.17-.13-.34-.24-.51-.37,0,0-.03-.02-.04-.03-.16-.13-.3-.26-.43-.39-.32-.31-.59-.62-.82-.92t0,0h0s0-.02,0-.03h0s0,0,0,0h0s0,0,0,0h0c-.13-.2-.25-.39-.36-.57-.16-.27-.29-.57-.43-.92-.04-.1-.07-.2-.1-.28-.2-.65-.31-1.31-.31-1.98,0-3.7,3.14-6.7,7-6.7Z" transform="matrix(0.9999999999999999, 0, 0, 0.9999999999999999, 0, 0)" style="stroke: rgb(0, 0, 0);"/>
  <path d="M 32.473 45.36 C 35.803 45.36 38.503 42.63 38.503 39.29 L 38.503 36.93 C 38.503 33.59 35.803 30.87 32.473 30.87 C 29.143 30.87 26.433 33.59 26.433 36.93 L 26.433 39.29 C 26.433 42.63 29.133 45.36 32.473 45.36 Z M 28.383 36.93 C 28.383 34.66 30.223 32.82 32.473 32.82 C 34.723 32.82 36.553 34.66 36.553 36.93 L 36.553 39.29 C 36.553 41.56 34.713 43.41 32.473 43.41 C 30.233 43.41 28.383 41.56 28.383 39.29 L 28.383 36.93 Z" style="stroke: rgb(0, 0, 0); stroke-width: 2px;"/>
  <path d="M 67.057 39.222 C 67.057 42.562 69.757 45.292 73.087 45.292 C 76.417 45.292 79.127 42.562 79.127 39.222 L 79.127 36.862 C 79.127 33.522 76.427 30.802 73.087 30.802 C 69.747 30.802 67.057 33.522 67.057 36.862 L 67.057 39.222 Z M 68.997 36.862 C 68.997 34.592 70.837 32.752 73.077 32.752 C 75.317 32.752 77.167 34.592 77.167 36.862 L 77.167 39.222 C 77.167 41.492 75.327 43.342 73.077 43.342 C 70.827 43.342 68.997 41.492 68.997 39.222 L 68.997 36.862 Z" style="stroke: rgb(0, 0, 0); stroke-width: 2px;"/>
  <path d="M 60.645 30.766 C 63.975 30.766 66.685 28.046 66.685 24.706 L 66.685 22.346 C 66.685 19.006 63.975 16.276 60.645 16.276 C 57.315 16.276 54.615 19.006 54.615 22.346 L 54.615 24.706 C 54.615 28.046 57.315 30.766 60.645 30.766 Z M 56.565 22.346 C 56.565 20.076 58.395 18.226 60.645 18.226 C 62.895 18.226 64.735 20.076 64.735 22.346 L 64.735 24.706 C 64.735 26.976 62.895 28.816 60.645 28.816 C 58.395 28.816 56.565 26.976 56.565 24.706 L 56.565 22.346 Z" style="stroke: rgb(0, 0, 0); stroke-width: 2px;"/>
  <path d="M 45.147 30.823 C 48.477 30.823 51.177 28.103 51.177 24.763 L 51.177 22.403 C 51.177 19.063 48.477 16.333 45.147 16.333 C 41.817 16.333 39.107 19.063 39.107 22.403 L 39.107 24.763 C 39.107 28.103 41.817 30.823 45.147 30.823 Z M 41.057 22.403 C 41.057 20.133 42.897 18.283 45.147 18.283 C 47.397 18.283 49.227 20.133 49.227 22.403 L 49.227 24.763 C 49.227 27.033 47.397 28.873 45.147 28.873 C 42.897 28.873 41.057 27.033 41.057 24.763 L 41.057 22.403 Z" style="stroke: rgb(0, 0, 0); stroke-width: 2px;"/>
  <path d="M42.05,41.66l-4.56,10.86c-1.33,3.18-1.01,6.77,.88,9.62,1.76,2.67,4.54,4.2,7.62,4.2h13.86c3.08,0,5.86-1.54,7.62-4.2,1.89-2.86,2.21-6.44,.88-9.62l-4.56-10.86c-1.33-5.18-5.79-8.79-10.87-8.79s-9.54,3.61-10.87,8.79Zm10.87-6.83c4.21,0,7.91,3.04,9,7.38,0,.05,.03,.1,.05,.15l4.59,10.93c1.08,2.57,.82,5.48-.7,7.77-1.4,2.12-3.59,3.33-6.01,3.33h-13.86c-2.42,0-4.61-1.21-6.01-3.33-1.52-2.3-1.78-5.2-.7-7.77l4.59-10.93s.04-.1,.05-.15c1.09-4.34,4.79-7.38,9-7.38Z" transform="matrix(0.9999999999999999, 0, 0, 0.9999999999999999, 0, 0)" style="stroke: rgb(0, 0, 0); stroke-width: 2px;"/>
</svg>